<svg width="48" height="47" viewBox="0 0 48 47" xmlns="http://www.w3.org/2000/svg">
    <g fill="#000" fill-rule="nonzero">
        <path d="M41.42 7.485h-2.446l-7.276-7.3a.63.63 0 0 0-.892 0l-3.089 3.1L24.845.401a.63.63 0 0 0-.893 0l-7.059 7.082h-4.93a4.838 4.838 0 0 0-3.42 1.424 4.871 4.871 0 0 0-1.419 3.432v13.038A11.18 11.18 0 0 0 .182 33.8a11.21 11.21 0 0 0 3.527 10.342 11.123 11.123 0 0 0 10.63 2.39 11.172 11.172 0 0 0 7.588-7.843H41.42a4.838 4.838 0 0 0 3.42-1.424 4.87 4.87 0 0 0 1.42-3.431v-5.508h1.11a.632.632 0 0 0 .631-.633V18.48a.632.632 0 0 0-.631-.633h-1.11V12.34a4.87 4.87 0 0 0-1.42-3.431 4.837 4.837 0 0 0-3.42-1.424zM31.251 1.529l5.936 5.956h-5.284L28.609 4.18l2.643-2.651zm-6.854.216 5.72 5.74h-11.44l5.72-5.74zM11.15 45.734a9.872 9.872 0 0 1-6.993-2.906 9.94 9.94 0 0 1-2.896-7.016 9.938 9.938 0 0 1 2.896-7.016 9.872 9.872 0 0 1 6.993-2.906 9.872 9.872 0 0 1 6.992 2.906 9.939 9.939 0 0 1-.003 14.028 9.885 9.885 0 0 1-6.99 2.91zm33.846-11.899a3.6 3.6 0 0 1-1.05 2.537 3.575 3.575 0 0 1-2.527 1.052H22.186a11.213 11.213 0 0 0-3.58-9.93A11.126 11.126 0 0 0 8.388 24.97v-12.63a3.599 3.599 0 0 1 1.05-2.537 3.574 3.574 0 0 1 2.527-1.052h5.433l.01.01.01-.01h13.965l.01.01.01-.01H41.42c.948 0 1.857.38 2.528 1.052a3.598 3.598 0 0 1 1.049 2.536v5.508h-7.02a5.218 5.218 0 0 0-4.502 2.627 5.255 5.255 0 0 0 0 5.226 5.22 5.22 0 0 0 4.502 2.626h7.02v5.508zm1.74-6.774h-8.76a3.957 3.957 0 0 1-3.412-1.993 3.985 3.985 0 0 1 0-3.96 3.957 3.957 0 0 1 3.412-1.993h8.76v7.946z"/>
        <path d="M35.796 23.088c0 .626.248 1.226.69 1.669a2.349 2.349 0 0 0 4.015-1.67c0-.626-.248-1.227-.689-1.67a2.35 2.35 0 0 0-3.326.002 2.367 2.367 0 0 0-.69 1.669zm2.353-1.094c.44 0 .838.266 1.007.674.169.41.076.88-.236 1.193-.311.313-.78.406-1.188.237a1.094 1.094 0 0 1 .417-2.105zM15.627 29.68a.632.632 0 0 0 .007-1.267L9.3 28.344l-2.539-.027h-.007a.632.632 0 0 0-.006 1.267l2.538.027a3.175 3.175 0 0 1 2.001.742 3.192 3.192 0 0 1 1.084 1.844l-5.65-.06h-.007a.632.632 0 0 0-.007 1.266l5.65.06a3.194 3.194 0 0 1-1.109 1.81 3.173 3.173 0 0 1-1.995.71H9.22l-2.54-.028h-.006a.632.632 0 0 0-.438 1.089l6.28 6.084a.63.63 0 0 0 .893-.016.635.635 0 0 0-.016-.895l-5.139-4.978.952.01h.048a4.437 4.437 0 0 0 2.886-1.074 4.464 4.464 0 0 0 1.499-2.698l1.94.021h.007a.632.632 0 0 0 .007-1.266l-1.94-.021h-.001a4.446 4.446 0 0 0-1.269-2.567l3.237.035h.007z"/>
    </g>
</svg>
