<svg width="48" height="42" viewBox="0 0 48 42" xmlns="http://www.w3.org/2000/svg">
    <path d="M43.5 4.5h-.75V3a3 3 0 0 0-6 0v1.5h-4.5V3a3 3 0 0 0-6 0v1.5h-4.5V3a3 3 0 0 0-6 0v1.5h-4.5V3a3 3 0 0 0-6 0v1.5H4.5A4.506 4.506 0 0 0 0 9v28.5A4.506 4.506 0 0 0 4.5 42h39a4.506 4.506 0 0 0 4.5-4.5V9a4.506 4.506 0 0 0-4.5-4.5zM38.25 3a1.5 1.5 0 1 1 3 0v4.5a1.5 1.5 0 1 1-3 0V3zm-10.5 0a1.5 1.5 0 1 1 3 0v4.5a1.5 1.5 0 1 1-3 0V3zm-10.5 0a1.5 1.5 0 1 1 3 0v4.5a1.5 1.5 0 1 1-3 0V3zM6.75 3a1.5 1.5 0 1 1 3 0v4.5a1.5 1.5 0 1 1-3 0V3zM4.5 6h.75v1.5a3 3 0 0 0 6 0V6h4.5v1.5a3 3 0 0 0 6 0V6h4.5v1.5a3 3 0 0 0 6 0V6h4.5v1.5a3 3 0 0 0 6 0V6h.75a3.001 3.001 0 0 1 3 3v4.5h-45V9a3.001 3.001 0 0 1 3-3zm39 34.5h-39a3.001 3.001 0 0 1-3-3V15h45v22.5a3.001 3.001 0 0 1-3 3zm-9.105-15.8-6.718-.976-3.002-6.089a.78.78 0 0 0-1.344 0l-3.006 6.087-6.718.975a.75.75 0 0 0-.416 1.275l4.861 4.738-1.147 6.691a.75.75 0 0 0 1.088.79L24 35.04l6.009 3.159a.75.75 0 0 0 1.088-.79l-1.148-6.692 4.862-4.738a.75.75 0 0 0-.416-1.275V24.7zm-5.775 5.218a.75.75 0 0 0-.215.663l.957 5.582-5.013-2.638a.75.75 0 0 0-.698 0l-5.013 2.636.957-5.582a.75.75 0 0 0-.215-.663l-4.055-3.954 5.603-.815a.75.75 0 0 0 .565-.41L24 19.662l2.506 5.077a.75.75 0 0 0 .565.41l5.604.816-4.055 3.953z" fill="#000" fill-rule="nonzero"/>
</svg>
