<svg width="50" height="40" viewBox="0 0 50 40" xmlns="http://www.w3.org/2000/svg">
    <g fill="#000" fill-rule="nonzero" stroke="#000" stroke-width=".5">
        <path d="M22.685 34.624c-5.534 0-11.069-.337-16.565-1.048-2.673-.336-4.668-2.618-4.63-5.273v-4.414c0-1.234.49-2.393 1.355-3.254a4.606 4.606 0 0 1 3.238-1.346l26.24.075v.748l-26.24-.075c-1.017 0-1.995.412-2.748 1.122a3.833 3.833 0 0 0-1.13 2.73v4.414c0 2.281 1.694 4.264 3.99 4.525a131.78 131.78 0 0 0 32.338.075 4.547 4.547 0 0 0 4.028-4.525v-4.413c0-.674-.188-1.347-.527-1.945l.64-.374c.414.71.603 1.496.603 2.319v4.413c0 2.655-1.996 4.937-4.669 5.236-5.27.673-10.578 1.01-15.923 1.01z"/>
        <path d="M36.35 30.024a3.019 3.019 0 0 1-3.012-3.03c0-1.646 1.356-2.992 3.012-2.992a3.019 3.019 0 0 1 3.012 3.03c0 1.645-1.355 2.992-3.012 2.992zm-2.296-2.993a2.274 2.274 0 0 0 2.296 2.282c1.243 0 2.297-1.01 2.297-2.282a2.274 2.274 0 0 0-2.297-2.281 2.274 2.274 0 0 0-2.296 2.281zM8.454 29.948c-.828 0-1.58-.299-2.145-.897-.565-.562-.866-1.31-.866-2.132 0-.786.3-1.571.903-2.132.565-.561 1.318-.86 2.146-.86.79 0 1.581.299 2.146.897.565.561.866 1.31.866 2.132 0 .786-.301 1.57-.904 2.132-.565.561-1.318.86-2.146.86zm0-5.273c-.602 0-1.167.224-1.618.673a2.318 2.318 0 0 0-.678 1.608c0 .599.226 1.197.677 1.608.415.45 1.017.674 1.62.674.602 0 1.166-.225 1.618-.674.452-.411.678-1.01.678-1.608 0-.598-.226-1.197-.678-1.608a2.28 2.28 0 0 0-1.619-.673zM30.478 28.228a52.207 52.207 0 0 0-16.188-.037l-.113-.71c5.459-.861 10.955-.824 16.414.036l-.113.711zM30.478 25.685a52.207 52.207 0 0 0-16.188-.038l-.113-.71c5.459-.86 10.955-.823 16.414.037l-.113.71zM4.464 20.299l-.678-.262 3.99-10.734a4.638 4.638 0 0 1 4.33-2.992l16.64.037v.748l-16.64-.037c-1.618 0-3.087 1.01-3.614 2.543L4.464 20.299z"/>
        <path d="M4.426 19.738h-.678C2.243 19.738 1 18.503 1 17.008c0-.749.301-1.422.828-1.945.527-.524 1.205-.786 1.958-.786h2.447v.748H3.786c-.527 0-1.054.225-1.43.599a2.037 2.037 0 0 0-.603 1.42c0 .524.226 1.048.602 1.422.377.374.904.598 1.43.598h.679l-.038.674zM39.4 39h-3.728a1.77 1.77 0 0 1-1.769-1.795v-3.479h.753v3.479c0 .56.452 1.047 1.054 1.047h3.728c.564 0 1.054-.449 1.054-1.047v-4.788h.753v4.788C41.169 38.215 40.378 39 39.4 39zM9.094 38.925H5.367a1.77 1.77 0 0 1-1.77-1.795v-4.788h.754v4.788c0 .56.451 1.047 1.054 1.047h3.727c.565 0 1.054-.449 1.054-1.047V33.65h.753v3.479c-.075 1.01-.866 1.795-1.845 1.795zM38.684 23.814l-.075-.037c-6.024-1.496-10.24-6.845-10.24-13.016v-7.18L38.685 1 49 3.58v7.182c0 6.171-4.216 11.519-10.24 13.015l-.076.037zM29.122 4.141v6.62c0 5.797 3.915 10.847 9.562 12.305 5.647-1.459 9.563-6.508 9.563-12.305v-6.62l-9.562-2.394-9.563 2.394z"/>
        <path d="M38.684 18.392c-3.313 0-6.023-2.693-6.023-5.985 0-3.291 2.71-5.984 6.023-5.984 3.313 0 6.024 2.693 6.024 5.984 0 3.292-2.711 5.985-6.024 5.985zm0-11.258c-2.936 0-5.308 2.356-5.308 5.274 0 2.917 2.372 5.273 5.308 5.273 2.937 0 5.308-2.356 5.308-5.273 0-2.918-2.41-5.274-5.308-5.274z"/>
        <path d="M37.404 14.988a.343.343 0 0 1-.263-.112l-1.883-1.87a.36.36 0 0 1 0-.524c.151-.15.377-.15.528 0l1.618 1.608 4.179-4.151c.15-.15.376-.15.527 0a.36.36 0 0 1 0 .524l-4.442 4.413a.343.343 0 0 1-.264.112z"/>
    </g>
</svg>
